<svg width="433" height="408" viewBox="0 0 433 408" fill="none" xmlns="http://www.w3.org/2000/svg" xmlns:xlink="http://www.w3.org/1999/xlink">
<rect width="433" height="408" fill="url(#pattern0)"/>
<path d="M167 198H46L45 276H121V253.5H167V198Z" fill="#3595F6" fill-opacity="0.75"/>
<path d="M92.5 392.5H28.5V328.5H46V276H121V253.5H166.5V274.5H165.5V311H140V376H92.5V392.5Z" fill="#3595F6" fill-opacity="0.75"/>
<path d="M174 395H216L216.5 263H187V273.5H165.5V311H140V376H174V395Z" fill="#3595F6" fill-opacity="0.75"/>
<path d="M246 263H216.5L216 395H260V376H296.5V308H271.5V274.5H270V268H266V274H246V263Z" fill="#3595F6" fill-opacity="0.75"/>
<path d="M312 253H266V268H270V274.5H271.5V308H296.5V376H340.5V393H405V328H387V274H381V269.5H314.5H312V253Z" fill="#3595F6" fill-opacity="0.75"/>
<path d="M266 253V199H365.5V189H370V204H387V274H381V269.5H312V253H266Z" fill="#3595F6" fill-opacity="0.75"/>
<path d="M269 158H266V199H365.5V189H370V204H387V144.5H370V164H365V142H315.5V150.5H269V158Z" fill="#3595F6" fill-opacity="0.75"/>
<path d="M249.5 117H247V103.5H249.5V33H341V16H405V81.5H387.5V144.5H370V164H365V142H315.5V150.5H269V158H266V132.5H249.5V117Z" fill="#3595F6" fill-opacity="0.75"/>
<path d="M45.5 81.5V116H124V145H164V131.5H183V33H93V16H28.5V81.5H45.5Z" fill="#3595F6" fill-opacity="0.75"/>
<path d="M124.729 116H46V198H167V145.178H124.729V116Z" fill="#3595F6" fill-opacity="0.75"/>
<defs>
<pattern id="pattern0" patternContentUnits="objectBoundingBox" width="1" height="1">
<use xlink:href="#image0" transform="scale(0.00230947 0.00245098)"/>
</pattern>
<image id="image0" width="433" height="408" xlink:href="/images/static/floor.png"/>
</defs>
</svg>
